<svg width="119" height="13" viewBox="0 0 119 13" fill="none" xmlns="http://www.w3.org/2000/svg">
<path d="M6.608 12.16C5.808 12.16 5.06133 12.0107 4.368 11.712C3.67467 11.4133 3.06133 11.0027 2.528 10.48C2.00533 9.94667 1.59467 9.33333 1.296 8.64C0.997333 7.94667 0.848 7.2 0.848 6.4C0.848 5.6 0.997333 4.85333 1.296 4.16C1.59467 3.46667 2.00533 2.85867 2.528 2.336C3.06133 1.80267 3.67467 1.38667 4.368 1.088C5.06133 0.789333 5.808 0.639999 6.608 0.639999C7.408 0.639999 8.15467 0.789333 8.848 1.088C9.54133 1.38667 10.1493 1.80267 10.672 2.336C11.2053 2.85867 11.6213 3.46667 11.92 4.16C12.2187 4.85333 12.368 5.6 12.368 6.4C12.368 7.2 12.2187 7.94667 11.92 8.64C11.6213 9.33333 11.2053 9.94667 10.672 10.48C10.1493 11.0027 9.54133 11.4133 8.848 11.712C8.15467 12.0107 7.408 12.16 6.608 12.16ZM6.608 11.168C7.25867 11.168 7.86667 11.0453 8.432 10.8C8.99733 10.544 9.49333 10.1973 9.92 9.76C10.3467 9.32267 10.6827 8.816 10.928 8.24C11.1733 7.664 11.296 7.05067 11.296 6.4C11.296 5.74933 11.1733 5.136 10.928 4.56C10.6827 3.984 10.3467 3.47733 9.92 3.04C9.49333 2.60267 8.99733 2.26133 8.432 2.016C7.86667 1.76 7.25867 1.632 6.608 1.632C5.95733 1.632 5.34933 1.76 4.784 2.016C4.21867 2.26133 3.72267 2.60267 3.296 3.04C2.86933 3.47733 2.53333 3.984 2.288 4.56C2.05333 5.136 1.936 5.74933 1.936 6.4C1.936 7.05067 2.05333 7.664 2.288 8.24C2.53333 8.816 2.86933 9.32267 3.296 9.76C3.72267 10.1973 4.21867 10.544 4.784 10.8C5.34933 11.0453 5.95733 11.168 6.608 11.168ZM6.608 9.472C6.064 9.472 5.6 9.36 5.216 9.136C4.832 8.90133 4.53333 8.59733 4.32 8.224C4.11733 7.84 4.00533 7.41333 3.984 6.944C3.984 6.848 3.97867 6.73067 3.968 6.592C3.968 6.45333 3.968 6.31467 3.968 6.176C3.97867 6.03733 3.984 5.92 3.984 5.824C4.00533 5.35467 4.11733 4.93333 4.32 4.56C4.53333 4.176 4.832 3.872 5.216 3.648C5.6 3.41333 6.064 3.296 6.608 3.296C7.20533 3.296 7.696 3.392 8.08 3.584C8.464 3.76533 8.74667 3.99467 8.928 4.272C9.10933 4.53867 9.20533 4.80533 9.216 5.072C9.216 5.17867 9.184 5.264 9.12 5.328C9.056 5.392 8.97067 5.424 8.864 5.424H8.352C8.23467 5.424 8.14933 5.392 8.096 5.328C8.04267 5.264 8 5.19467 7.968 5.12C7.88267 4.87467 7.73333 4.688 7.52 4.56C7.31733 4.432 7.01333 4.368 6.608 4.368C6.23467 4.368 5.94667 4.448 5.744 4.608C5.54133 4.75733 5.39733 4.94933 5.312 5.184C5.23733 5.408 5.19467 5.62667 5.184 5.84C5.184 5.936 5.17867 6.05333 5.168 6.192C5.168 6.32 5.168 6.45333 5.168 6.592C5.17867 6.72 5.184 6.832 5.184 6.928C5.19467 7.13067 5.23733 7.34933 5.312 7.584C5.39733 7.81867 5.54133 8.016 5.744 8.176C5.94667 8.32533 6.23467 8.4 6.608 8.4C7.01333 8.4 7.31733 8.336 7.52 8.208C7.73333 8.08 7.88267 7.89333 7.968 7.648C8 7.57333 8.04267 7.504 8.096 7.44C8.14933 7.376 8.23467 7.344 8.352 7.344H8.864C8.97067 7.344 9.056 7.376 9.12 7.44C9.184 7.504 9.216 7.58933 9.216 7.696C9.20533 7.952 9.10933 8.21867 8.928 8.496C8.74667 8.77333 8.464 9.008 8.08 9.2C7.696 9.38133 7.20533 9.472 6.608 9.472ZM17.4926 12C17.386 12 17.2953 11.968 17.2206 11.904C17.1566 11.8293 17.1246 11.7387 17.1246 11.632V11.12C17.1246 11.024 17.1513 10.9173 17.2046 10.8C17.258 10.6827 17.3646 10.5547 17.5246 10.416L20.9166 7.024C21.4606 6.56533 21.8873 6.176 22.1966 5.856C22.5166 5.52533 22.7406 5.21067 22.8686 4.912C23.0073 4.61333 23.0766 4.304 23.0766 3.984C23.0766 3.376 22.906 2.896 22.5646 2.544C22.2233 2.18133 21.7166 2 21.0446 2C20.618 2 20.25 2.09067 19.9406 2.272C19.6313 2.44267 19.386 2.68267 19.2046 2.992C19.034 3.29067 18.922 3.632 18.8686 4.016C18.8473 4.15467 18.7886 4.25067 18.6926 4.304C18.6073 4.35733 18.5273 4.384 18.4526 4.384H17.6206C17.5246 4.384 17.4446 4.35733 17.3806 4.304C17.3166 4.24 17.2846 4.16533 17.2846 4.08C17.2953 3.67467 17.3806 3.26933 17.5406 2.864C17.7006 2.448 17.9353 2.07467 18.2446 1.744C18.5646 1.41333 18.954 1.14667 19.4126 0.943999C19.882 0.730666 20.426 0.624 21.0446 0.624C21.8873 0.624 22.5753 0.778666 23.1086 1.088C23.6526 1.38667 24.0526 1.78667 24.3086 2.288C24.5646 2.78933 24.6926 3.33867 24.6926 3.936C24.6926 4.40533 24.6126 4.83733 24.4526 5.232C24.2926 5.616 24.058 5.99467 23.7486 6.368C23.45 6.73067 23.0766 7.104 22.6286 7.488L19.5566 10.608H24.5486C24.666 10.608 24.7566 10.64 24.8206 10.704C24.8953 10.768 24.9326 10.8587 24.9326 10.976V11.632C24.9326 11.7387 24.8953 11.8293 24.8206 11.904C24.7566 11.968 24.666 12 24.5486 12H17.4926ZM30.4032 12.16C29.6672 12.16 29.0432 12.048 28.5312 11.824C28.0299 11.5893 27.6192 11.2693 27.2992 10.864C26.9792 10.4587 26.7446 9.99467 26.5952 9.472C26.4566 8.94933 26.3766 8.39467 26.3552 7.808C26.3446 7.52 26.3339 7.216 26.3232 6.896C26.3232 6.576 26.3232 6.256 26.3232 5.936C26.3339 5.60533 26.3446 5.29067 26.3552 4.992C26.3659 4.40533 26.4459 3.85067 26.5952 3.328C26.7552 2.79467 26.9899 2.33067 27.2992 1.936C27.6192 1.53067 28.0352 1.216 28.5472 0.992C29.0592 0.757333 29.6779 0.639999 30.4032 0.639999C31.1392 0.639999 31.7579 0.757333 32.2592 0.992C32.7712 1.216 33.1872 1.53067 33.5072 1.936C33.8272 2.33067 34.0619 2.79467 34.2112 3.328C34.3712 3.85067 34.4566 4.40533 34.4672 4.992C34.4779 5.29067 34.4832 5.60533 34.4832 5.936C34.4939 6.256 34.4939 6.576 34.4832 6.896C34.4832 7.216 34.4779 7.52 34.4672 7.808C34.4566 8.39467 34.3712 8.94933 34.2112 9.472C34.0619 9.99467 33.8272 10.4587 33.5072 10.864C33.1979 11.2693 32.7872 11.5893 32.2752 11.824C31.7739 12.048 31.1499 12.16 30.4032 12.16ZM30.4032 10.8C31.2352 10.8 31.8486 10.528 32.2432 9.984C32.6486 9.42933 32.8566 8.67733 32.8672 7.728C32.8886 7.41867 32.8992 7.12 32.8992 6.832C32.8992 6.53333 32.8992 6.24 32.8992 5.952C32.8992 5.65333 32.8886 5.36 32.8672 5.072C32.8566 4.144 32.6486 3.40267 32.2432 2.848C31.8486 2.28267 31.2352 2 30.4032 2C29.5819 2 28.9686 2.28267 28.5632 2.848C28.1686 3.40267 27.9606 4.144 27.9392 5.072C27.9392 5.36 27.9339 5.65333 27.9232 5.952C27.9232 6.24 27.9232 6.53333 27.9232 6.832C27.9339 7.12 27.9392 7.41867 27.9392 7.728C27.9606 8.67733 28.1739 9.42933 28.5792 9.984C28.9846 10.528 29.5926 10.8 30.4032 10.8ZM36.2395 12C36.1328 12 36.0422 11.968 35.9675 11.904C35.9035 11.8293 35.8715 11.7387 35.8715 11.632V11.12C35.8715 11.024 35.8982 10.9173 35.9515 10.8C36.0048 10.6827 36.1115 10.5547 36.2715 10.416L39.6635 7.024C40.2075 6.56533 40.6342 6.176 40.9435 5.856C41.2635 5.52533 41.4875 5.21067 41.6155 4.912C41.7542 4.61333 41.8235 4.304 41.8235 3.984C41.8235 3.376 41.6528 2.896 41.3115 2.544C40.9702 2.18133 40.4635 2 39.7915 2C39.3648 2 38.9968 2.09067 38.6875 2.272C38.3782 2.44267 38.1328 2.68267 37.9515 2.992C37.7808 3.29067 37.6688 3.632 37.6155 4.016C37.5942 4.15467 37.5355 4.25067 37.4395 4.304C37.3542 4.35733 37.2742 4.384 37.1995 4.384H36.3675C36.2715 4.384 36.1915 4.35733 36.1275 4.304C36.0635 4.24 36.0315 4.16533 36.0315 4.08C36.0422 3.67467 36.1275 3.26933 36.2875 2.864C36.4475 2.448 36.6822 2.07467 36.9915 1.744C37.3115 1.41333 37.7008 1.14667 38.1595 0.943999C38.6288 0.730666 39.1728 0.624 39.7915 0.624C40.6342 0.624 41.3222 0.778666 41.8555 1.088C42.3995 1.38667 42.7995 1.78667 43.0555 2.288C43.3115 2.78933 43.4395 3.33867 43.4395 3.936C43.4395 4.40533 43.3595 4.83733 43.1995 5.232C43.0395 5.616 42.8048 5.99467 42.4955 6.368C42.1968 6.73067 41.8235 7.104 41.3755 7.488L38.3035 10.608H43.2955C43.4128 10.608 43.5035 10.64 43.5675 10.704C43.6422 10.768 43.6795 10.8587 43.6795 10.976V11.632C43.6795 11.7387 43.6422 11.8293 43.5675 11.904C43.5035 11.968 43.4128 12 43.2955 12H36.2395ZM48.8461 12.16C48.1741 12.16 47.5875 12.08 47.0861 11.92C46.5848 11.7493 46.1635 11.5253 45.8221 11.248C45.4808 10.9707 45.2195 10.6667 45.0381 10.336C44.8675 10.0053 44.7768 9.664 44.7661 9.312C44.7661 9.216 44.7981 9.14133 44.8621 9.088C44.9261 9.03467 45.0061 9.008 45.1021 9.008H45.8861C45.9821 9.008 46.0675 9.02933 46.1421 9.072C46.2168 9.11467 46.2808 9.20533 46.3341 9.344C46.4408 9.728 46.6221 10.0267 46.8781 10.24C47.1448 10.4533 47.4488 10.6027 47.7901 10.688C48.1421 10.7627 48.4941 10.8 48.8461 10.8C49.5821 10.8 50.1795 10.624 50.6381 10.272C51.0968 9.92 51.3261 9.40267 51.3261 8.72C51.3261 8.02667 51.1181 7.53067 50.7021 7.232C50.2861 6.93333 49.7101 6.784 48.9741 6.784H47.4541C47.3475 6.784 47.2568 6.752 47.1821 6.688C47.1181 6.624 47.0861 6.53333 47.0861 6.416V5.984C47.0861 5.888 47.1021 5.808 47.1341 5.744C47.1768 5.66933 47.2195 5.60533 47.2621 5.552L50.3661 2.16H45.6461C45.5395 2.16 45.4488 2.128 45.3741 2.064C45.3101 2 45.2781 1.90933 45.2781 1.792V1.184C45.2781 1.06667 45.3101 0.976 45.3741 0.912C45.4488 0.837333 45.5395 0.799999 45.6461 0.799999H52.0301C52.1475 0.799999 52.2381 0.837333 52.3021 0.912C52.3768 0.976 52.4141 1.06667 52.4141 1.184V1.76C52.4141 1.83467 52.3928 1.904 52.3501 1.968C52.3181 2.02133 52.2808 2.07467 52.2381 2.128L49.1501 5.568L49.4061 5.584C50.1101 5.60533 50.7235 5.73333 51.2461 5.968C51.7795 6.20267 52.1901 6.55467 52.4781 7.024C52.7768 7.48267 52.9261 8.064 52.9261 8.768C52.9261 9.48267 52.7501 10.096 52.3981 10.608C52.0461 11.1093 51.5608 11.4933 50.9421 11.76C50.3235 12.0267 49.6248 12.16 48.8461 12.16ZM61.8014 12.16C60.8734 12.16 60.0947 12.0213 59.4654 11.744C58.836 11.456 58.3507 11.088 58.0094 10.64C57.6787 10.1813 57.5027 9.696 57.4814 9.184C57.4814 9.09867 57.5134 9.024 57.5774 8.96C57.652 8.88533 57.7374 8.848 57.8334 8.848H58.6494C58.7774 8.848 58.8734 8.88 58.9374 8.944C59.0014 9.008 59.044 9.08267 59.0654 9.168C59.1187 9.424 59.2467 9.68 59.4494 9.936C59.6627 10.1813 59.956 10.3893 60.3294 10.56C60.7134 10.72 61.204 10.8 61.8014 10.8C62.7187 10.8 63.3907 10.64 63.8174 10.32C64.2547 9.98933 64.4734 9.552 64.4734 9.008C64.4734 8.63467 64.356 8.336 64.1214 8.112C63.8974 7.87733 63.5507 7.66933 63.0814 7.488C62.612 7.30667 62.004 7.10933 61.2574 6.896C60.4787 6.672 59.8334 6.42667 59.3214 6.16C58.8094 5.89333 58.4254 5.56267 58.1694 5.168C57.924 4.77333 57.8014 4.272 57.8014 3.664C57.8014 3.088 57.956 2.576 58.2654 2.128C58.5747 1.66933 59.0174 1.30667 59.5934 1.04C60.18 0.773333 60.8894 0.639999 61.7214 0.639999C62.3827 0.639999 62.9587 0.730666 63.4494 0.912C63.9507 1.08267 64.3667 1.31733 64.6974 1.616C65.028 1.904 65.2787 2.21867 65.4494 2.56C65.62 2.89067 65.7107 3.216 65.7214 3.536C65.7214 3.61067 65.6947 3.68533 65.6414 3.76C65.588 3.824 65.5027 3.856 65.3854 3.856H64.5374C64.4627 3.856 64.3827 3.83467 64.2974 3.792C64.2227 3.74933 64.164 3.66933 64.1214 3.552C64.0574 3.11467 63.812 2.74667 63.3854 2.448C62.9587 2.14933 62.404 2 61.7214 2C61.028 2 60.4627 2.13333 60.0254 2.4C59.5987 2.66667 59.3854 3.08267 59.3854 3.648C59.3854 4.01067 59.4867 4.31467 59.6894 4.56C59.892 4.79467 60.212 5.00267 60.6494 5.184C61.0867 5.36533 61.6574 5.55733 62.3614 5.76C63.2147 5.99467 63.9134 6.24533 64.4574 6.512C65.0014 6.768 65.4014 7.09333 65.6574 7.488C65.924 7.872 66.0574 8.368 66.0574 8.976C66.0574 9.648 65.8814 10.224 65.5294 10.704C65.1774 11.1733 64.6814 11.536 64.0414 11.792C63.412 12.0373 62.6654 12.16 61.8014 12.16ZM70.9545 12.16C70.1438 12.16 69.4665 12.0053 68.9225 11.696C68.3785 11.3867 67.9625 10.96 67.6745 10.416C67.3865 9.86133 67.2265 9.232 67.1945 8.528C67.1838 8.34667 67.1785 8.11733 67.1785 7.84C67.1785 7.552 67.1838 7.32267 67.1945 7.152C67.2265 6.43733 67.3865 5.808 67.6745 5.264C67.9732 4.72 68.3945 4.29333 68.9385 3.984C69.4825 3.67467 70.1545 3.52 70.9545 3.52C71.7545 3.52 72.4265 3.67467 72.9705 3.984C73.5145 4.29333 73.9305 4.72 74.2185 5.264C74.5172 5.808 74.6825 6.43733 74.7145 7.152C74.7252 7.32267 74.7305 7.552 74.7305 7.84C74.7305 8.11733 74.7252 8.34667 74.7145 8.528C74.6825 9.232 74.5225 9.86133 74.2345 10.416C73.9465 10.96 73.5305 11.3867 72.9865 11.696C72.4425 12.0053 71.7652 12.16 70.9545 12.16ZM70.9545 10.928C71.6158 10.928 72.1438 10.72 72.5385 10.304C72.9332 9.87733 73.1465 9.25867 73.1785 8.448C73.1892 8.288 73.1945 8.08533 73.1945 7.84C73.1945 7.59467 73.1892 7.392 73.1785 7.232C73.1465 6.42133 72.9332 5.808 72.5385 5.392C72.1438 4.96533 71.6158 4.752 70.9545 4.752C70.2932 4.752 69.7598 4.96533 69.3545 5.392C68.9598 5.808 68.7518 6.42133 68.7305 7.232C68.7198 7.392 68.7145 7.59467 68.7145 7.84C68.7145 8.08533 68.7198 8.288 68.7305 8.448C68.7518 9.25867 68.9598 9.87733 69.3545 10.304C69.7598 10.72 70.2932 10.928 70.9545 10.928ZM76.718 12C76.6113 12 76.5207 11.968 76.446 11.904C76.382 11.8293 76.35 11.7387 76.35 11.632V1.008C76.35 0.901333 76.382 0.816 76.446 0.752C76.5207 0.677333 76.6113 0.639999 76.718 0.639999H77.47C77.5873 0.639999 77.678 0.677333 77.742 0.752C77.806 0.816 77.838 0.901333 77.838 1.008V11.632C77.838 11.7387 77.806 11.8293 77.742 11.904C77.678 11.968 77.5873 12 77.47 12H76.718ZM82.1446 12.16C81.6113 12.16 81.126 12.0533 80.6886 11.84C80.2513 11.6267 79.8993 11.3387 79.6326 10.976C79.366 10.6133 79.2326 10.2027 79.2326 9.744C79.2326 9.008 79.5313 8.42133 80.1286 7.984C80.726 7.54667 81.5046 7.25867 82.4646 7.12L84.8486 6.784V6.32C84.8486 5.808 84.6993 5.408 84.4006 5.12C84.1126 4.832 83.638 4.688 82.9766 4.688C82.4966 4.688 82.1073 4.784 81.8086 4.976C81.5206 5.168 81.318 5.41333 81.2006 5.712C81.1366 5.872 81.0246 5.952 80.8646 5.952H80.1446C80.0273 5.952 79.9366 5.92 79.8726 5.856C79.8193 5.78133 79.7926 5.696 79.7926 5.6C79.7926 5.44 79.8513 5.24267 79.9686 5.008C80.0966 4.77333 80.2886 4.544 80.5446 4.32C80.8006 4.096 81.126 3.90933 81.5206 3.76C81.926 3.6 82.4166 3.52 82.9926 3.52C83.6326 3.52 84.1713 3.60533 84.6086 3.776C85.046 3.936 85.3873 4.15467 85.6326 4.432C85.8886 4.70933 86.07 5.024 86.1766 5.376C86.294 5.728 86.3526 6.08533 86.3526 6.448V11.632C86.3526 11.7387 86.3153 11.8293 86.2406 11.904C86.1766 11.968 86.0913 12 85.9846 12H85.2486C85.1313 12 85.0406 11.968 84.9766 11.904C84.9126 11.8293 84.8806 11.7387 84.8806 11.632V10.944C84.742 11.136 84.5553 11.328 84.3206 11.52C84.086 11.7013 83.7926 11.856 83.4406 11.984C83.0886 12.1013 82.6566 12.16 82.1446 12.16ZM82.4806 10.96C82.918 10.96 83.318 10.8693 83.6806 10.688C84.0433 10.496 84.326 10.2027 84.5286 9.808C84.742 9.41333 84.8486 8.91733 84.8486 8.32V7.872L82.9926 8.144C82.2353 8.25067 81.6646 8.432 81.2806 8.688C80.8966 8.93333 80.7046 9.248 80.7046 9.632C80.7046 9.93067 80.79 10.1813 80.9606 10.384C81.142 10.576 81.366 10.72 81.6326 10.816C81.91 10.912 82.1926 10.96 82.4806 10.96ZM88.6207 12C88.5141 12 88.4234 11.968 88.3487 11.904C88.2847 11.8293 88.2527 11.7387 88.2527 11.632V4.048C88.2527 3.94133 88.2847 3.856 88.3487 3.792C88.4234 3.71733 88.5141 3.68 88.6207 3.68H89.3727C89.4794 3.68 89.5647 3.71733 89.6287 3.792C89.7034 3.856 89.7407 3.94133 89.7407 4.048V4.752C90.0181 4.38933 90.3647 4.096 90.7807 3.872C91.2074 3.63733 91.7514 3.52 92.4127 3.52C93.1061 3.52 93.6927 3.67467 94.1727 3.984C94.6634 4.28267 95.0314 4.704 95.2767 5.248C95.5221 5.78133 95.6447 6.40533 95.6447 7.12V11.632C95.6447 11.7387 95.6127 11.8293 95.5487 11.904C95.4847 11.968 95.3994 12 95.2927 12H94.4927C94.3861 12 94.2954 11.968 94.2207 11.904C94.1567 11.8293 94.1247 11.7387 94.1247 11.632V7.2C94.1247 6.45333 93.9434 5.872 93.5807 5.456C93.2181 5.02933 92.6847 4.816 91.9807 4.816C91.3194 4.816 90.7861 5.02933 90.3807 5.456C89.9861 5.872 89.7887 6.45333 89.7887 7.2V11.632C89.7887 11.7387 89.7514 11.8293 89.6767 11.904C89.6127 11.968 89.5274 12 89.4207 12H88.6207ZM99.8759 12.16C99.3425 12.16 98.8572 12.0533 98.4199 11.84C97.9825 11.6267 97.6305 11.3387 97.3639 10.976C97.0972 10.6133 96.9639 10.2027 96.9639 9.744C96.9639 9.008 97.2625 8.42133 97.8599 7.984C98.4572 7.54667 99.2359 7.25867 100.196 7.12L102.58 6.784V6.32C102.58 5.808 102.431 5.408 102.132 5.12C101.844 4.832 101.369 4.688 100.708 4.688C100.228 4.688 99.8385 4.784 99.5399 4.976C99.2519 5.168 99.0492 5.41333 98.9319 5.712C98.8679 5.872 98.7559 5.952 98.5959 5.952H97.8759C97.7585 5.952 97.6679 5.92 97.6039 5.856C97.5505 5.78133 97.5239 5.696 97.5239 5.6C97.5239 5.44 97.5825 5.24267 97.6999 5.008C97.8279 4.77333 98.0199 4.544 98.2759 4.32C98.5319 4.096 98.8572 3.90933 99.2519 3.76C99.6572 3.6 100.148 3.52 100.724 3.52C101.364 3.52 101.903 3.60533 102.34 3.776C102.777 3.936 103.119 4.15467 103.364 4.432C103.62 4.70933 103.801 5.024 103.908 5.376C104.025 5.728 104.084 6.08533 104.084 6.448V11.632C104.084 11.7387 104.047 11.8293 103.972 11.904C103.908 11.968 103.823 12 103.716 12H102.98C102.863 12 102.772 11.968 102.708 11.904C102.644 11.8293 102.612 11.7387 102.612 11.632V10.944C102.473 11.136 102.287 11.328 102.052 11.52C101.817 11.7013 101.524 11.856 101.172 11.984C100.82 12.1013 100.388 12.16 99.8759 12.16ZM100.212 10.96C100.649 10.96 101.049 10.8693 101.412 10.688C101.775 10.496 102.057 10.2027 102.26 9.808C102.473 9.41333 102.58 8.91733 102.58 8.32V7.872L100.724 8.144C99.9665 8.25067 99.3959 8.432 99.0119 8.688C98.6279 8.93333 98.4359 9.248 98.4359 9.632C98.4359 9.93067 98.5212 10.1813 98.6919 10.384C98.8732 10.576 99.0972 10.72 99.3639 10.816C99.6412 10.912 99.9239 10.96 100.212 10.96ZM113.938 12.16C113.042 12.16 112.269 12 111.618 11.68C110.978 11.36 110.482 10.8747 110.13 10.224C109.789 9.56267 109.618 8.71467 109.618 7.68V1.184C109.618 1.06667 109.65 0.976 109.714 0.912C109.778 0.837333 109.869 0.799999 109.986 0.799999H110.802C110.919 0.799999 111.01 0.837333 111.074 0.912C111.149 0.976 111.186 1.06667 111.186 1.184V7.712C111.186 8.75733 111.431 9.53067 111.922 10.032C112.413 10.5333 113.085 10.784 113.938 10.784C114.781 10.784 115.447 10.5333 115.938 10.032C116.439 9.53067 116.69 8.75733 116.69 7.712V1.184C116.69 1.06667 116.722 0.976 116.786 0.912C116.861 0.837333 116.951 0.799999 117.058 0.799999H117.89C117.997 0.799999 118.082 0.837333 118.146 0.912C118.221 0.976 118.258 1.06667 118.258 1.184V7.68C118.258 8.71467 118.082 9.56267 117.73 10.224C117.389 10.8747 116.898 11.36 116.258 11.68C115.618 12 114.845 12.16 113.938 12.16Z" fill="#999999"/>
</svg>
