<svg width="20" height="20" viewBox="0 0 20 20" fill="none" xmlns="http://www.w3.org/2000/svg">
<path d="M6.66663 17.5H13.3333" stroke="white" stroke-width="1.66667" stroke-linecap="round" stroke-linejoin="round"/>
<path d="M10 14.1667V17.5001" stroke="white" stroke-width="1.66667" stroke-linecap="round" stroke-linejoin="round"/>
<path d="M5.83337 3.33325H14.1667" stroke="white" stroke-width="1.66667" stroke-linecap="round" stroke-linejoin="round"/>
<path d="M14.1667 3.33325V9.99992C14.1667 11.105 13.7277 12.1648 12.9463 12.9462C12.1649 13.7276 11.1051 14.1666 10 14.1666C8.89497 14.1666 7.83516 13.7276 7.05376 12.9462C6.27236 12.1648 5.83337 11.105 5.83337 9.99992V3.33325" stroke="white" stroke-width="1.66667" stroke-linecap="round" stroke-linejoin="round"/>
<path d="M4.16667 9.16659C5.08714 9.16659 5.83333 8.42039 5.83333 7.49992C5.83333 6.57944 5.08714 5.83325 4.16667 5.83325C3.24619 5.83325 2.5 6.57944 2.5 7.49992C2.5 8.42039 3.24619 9.16659 4.16667 9.16659Z" stroke="white" stroke-width="1.66667" stroke-linecap="round" stroke-linejoin="round"/>
<path d="M15.8333 9.16659C16.7538 9.16659 17.5 8.42039 17.5 7.49992C17.5 6.57944 16.7538 5.83325 15.8333 5.83325C14.9128 5.83325 14.1666 6.57944 14.1666 7.49992C14.1666 8.42039 14.9128 9.16659 15.8333 9.16659Z" stroke="white" stroke-width="1.66667" stroke-linecap="round" stroke-linejoin="round"/>
</svg>
