<svg width="16" height="13" viewBox="0 0 16 13" fill="none" xmlns="http://www.w3.org/2000/svg">
<path d="M13.5535 1.41229C12.5178 0.927705 11.4104 0.575531 10.2526 0.375C10.1104 0.632074 9.94429 0.977844 9.82976 1.2529C8.599 1.06781 7.37956 1.06781 6.17144 1.2529C6.05693 0.977844 5.88704 0.632074 5.74357 0.375C4.58454 0.575531 3.47584 0.928999 2.44013 1.41485C0.351095 4.57166 -0.215207 7.65005 0.0679444 10.6847C1.4535 11.7194 2.79627 12.348 4.11638 12.7593C4.44233 12.3107 4.73302 11.8338 4.98345 11.3313C4.5065 11.15 4.04969 10.9264 3.61805 10.6667C3.73256 10.5819 3.84457 10.4932 3.95279 10.402C6.58546 11.6333 9.44593 11.6333 12.0472 10.402C12.1566 10.4932 12.2686 10.5819 12.3819 10.6667C11.949 10.9277 11.4909 11.1513 11.014 11.3326C11.2644 11.8338 11.5538 12.312 11.881 12.7606C13.2024 12.3493 14.5464 11.7207 15.932 10.6847C16.2642 7.16676 15.3644 4.11664 13.5535 1.41229ZM5.34212 8.81843C4.55181 8.81843 3.9037 8.08063 3.9037 7.18218C3.9037 6.28373 4.53797 5.54466 5.34212 5.54466C6.14628 5.54466 6.79437 6.28243 6.78053 7.18218C6.78178 8.08063 6.14628 8.81843 5.34212 8.81843ZM10.6578 8.81843C9.86752 8.81843 9.21941 8.08063 9.21941 7.18218C9.21941 6.28373 9.85366 5.54466 10.6578 5.54466C11.462 5.54466 12.1101 6.28243 12.0962 7.18218C12.0962 8.08063 11.462 8.81843 10.6578 8.81843Z" fill="#999999"/>
</svg>
