<svg width="16" height="17" viewBox="0 0 16 17" fill="none" xmlns="http://www.w3.org/2000/svg">
<path d="M3.58143 16.8571H0.264286V6.17492H3.58143V16.8571ZM1.92107 4.71778C0.860357 4.71778 0 3.83921 0 2.77849C7.59214e-09 2.26899 0.202398 1.78036 0.562669 1.42009C0.92294 1.05982 1.41157 0.857422 1.92107 0.857422C2.43057 0.857422 2.9192 1.05982 3.27947 1.42009C3.63974 1.78036 3.84214 2.26899 3.84214 2.77849C3.84214 3.83921 2.98143 4.71778 1.92107 4.71778ZM15.9964 16.8571H12.6864V11.6571C12.6864 10.4178 12.6614 8.82849 10.9618 8.82849C9.23714 8.82849 8.97286 10.1749 8.97286 11.5678V16.8571H5.65929V6.17492H8.84071V7.63207H8.88714C9.33 6.79278 10.4118 5.90706 12.0257 5.90706C15.3829 5.90706 16 8.11778 16 10.9892V16.8571H15.9964Z" fill="#999999"/>
</svg>
