<?xml version="1.0" encoding="utf-8"?>
<!-- Generator: Adobe Illustrator 25.3.1, SVG Export Plug-In . SVG Version: 6.00 Build 0)  -->
<svg version="1.1" xmlns="http://www.w3.org/2000/svg" xmlns:xlink="http://www.w3.org/1999/xlink" x="0px" y="0px"
	 viewBox="0 0 384 576" enable-background="new 0 0 384 576" xml:space="preserve">
<g id="_x31_-star">
</g>
<g id="_x32_-hammer">
</g>
<g id="_x33_-arrow">
</g>
<g id="_x34_-power">
</g>
<g id="_x35_-fist">
</g>
<g id="_x36_-web">
</g>
<g id="_x37_-cross">
</g>
<g id="_x38_-necklace">
</g>
<g id="_x39_-wing">
</g>
<g id="_x31_0-magic-symbol">
</g>
<g id="_x31_1-thunder">
</g>
<g id="_x31_2-water">
</g>
<g id="_x31_3-fire">
</g>
<g id="_x31_4-sword">
</g>
<g id="_x31_5-eye">
</g>
<g id="_x31_6-gun">
</g>
<g id="_x31_7-gemstone">
</g>
<g id="_x31_8-team">
</g>
<g id="_x31_9-mask">
</g>
<g id="_x32_0-symbol">
</g>
<g id="_x32_1-gauntlet">
	<g>
		<g>
			<path fill="#F7941D" d="M12,232.8c0-15.9,10.7-28.8,24-28.8l24-24h24V36c0-13.3,10.7-24,24-24h24c13.3,0,24,10.7,24,24v12
				c0-13.3,10.7-24,24-24h24c13.3,0,24,10.7,24,24v12c0-13.3,10.7-24,24-24h24c13.3,0,24,10.7,24,24v12c0-13.3,10.7-24,24-24h24
				c13.3,0,24,10.7,24,24v300l-48,48l24,144H36l24-144l-48-48V232.8z"/>
			<g>
				<path fill="#EC6F1D" d="M300,372V72c0-13.3,10.7-24,24-24h24c13.3,0,24,10.7,24,24v300l-48,48l24,144h-72l-24-144L300,372z"/>
			</g>
			<circle fill="#6EE1EF" cx="192" cy="180" r="36"/>
			<path fill="#5FB1D7" d="M204,180c0-15.7-10-28.8-24-33.8c3.8-1.3,7.8-2.2,12-2.2c19.9,0,36,16.1,36,36s-16.1,36-36,36
				c-4.2,0-8.2-0.9-12-2.2C194,208.8,204,195.7,204,180z"/>
			<circle fill="#B465FF" cx="120" cy="168" r="36"/>
			<path fill="#7F3F98" d="M132,168c0-15.7-10-28.8-24-33.8c3.8-1.3,7.8-2.2,12-2.2c19.9,0,36,16.1,36,36s-16.1,36-36,36
				c-4.2,0-8.2-0.9-12-2.2C122,196.8,132,183.7,132,168z"/>
			<circle fill="#EF4136" cx="264" cy="192" r="36"/>
			<path fill="#BE3C36" d="M276,192c0-15.7-10-28.8-24-33.8c3.8-1.3,7.8-2.2,12-2.2c19.9,0,36,16.1,36,36s-16.1,36-36,36
				c-4.2,0-8.2-0.9-12-2.2C266,220.8,276,207.7,276,192z"/>
			<circle fill="#EC6F1D" cx="336" cy="204" r="36"/>
			<path fill="#BE3C36" d="M348,204c0-15.7-10-28.8-24-33.8c3.8-1.3,7.8-2.2,12-2.2c19.9,0,36,16.1,36,36s-16.1,36-36,36
				c-4.2,0-8.2-0.9-12-2.2C338,232.8,348,219.7,348,204z"/>
			<circle fill="#FFD241" cx="228" cy="336" r="48"/>
			<path fill="#FFB028" d="M198,354c26.5,0,48-21.5,48-48c0-5.4-1.1-10.5-2.7-15.3c19,6.4,32.7,24.2,32.7,45.3c0,26.5-21.5,48-48,48
				c-21.1,0-38.9-13.7-45.3-32.7C187.5,352.9,192.6,354,198,354z"/>
			<circle fill="#1EC951" cx="48" cy="336" r="36"/>
			<path fill="#00A14B" d="M60,336c0-15.7-10-28.8-24-33.8c3.8-1.3,7.8-2.2,12-2.2c19.9,0,36,16.1,36,36s-16.1,36-36,36
				c-4.2,0-8.2-0.9-12-2.2C50,364.8,60,351.7,60,336z"/>
		</g>
		<g>
			<path d="M348,36h-24c-6.4,0-12.4,1.8-17.6,4.8C300,30.7,288.8,24,276,24h-24c-6.4,0-12.4,1.8-17.6,4.8C228,18.7,216.8,12,204,12
				h-24c-6.4,0-12.4,1.8-17.6,4.8C156,6.7,144.8,0,132,0h-24C90.6,0,72,12.6,72,48v204h24v-42.7c7.1,4.1,15.2,6.7,24,6.7
				c11.8,0,22.5-4.5,30.9-11.6c8.4,14.1,23.6,23.6,41.1,23.6c11.8,0,22.5-4.5,30.9-11.6c8.4,14.1,23.6,23.6,41.1,23.6
				c11.8,0,22.5-4.5,30.9-11.6c8.4,14.1,23.6,23.6,41.1,23.6c8.8,0,16.9-2.5,24-6.7V367l-78.7,67l13.3,20l20.6-13.7L333.8,552H50.2
				l18.6-111.7L89.3,454l13.3-20l-62.5-50.8c2.6,0.4,5.1,0.8,7.8,0.8c26.5,0,48-21.5,48-48s-21.5-48-48-48c-8.8,0-16.9,2.5-24,6.7
				v-61.9c0-9.1,5.5-16.8,12-16.8h5l27.5-27.5l-17-17l-21,21C13.3,195.4,0,212.4,0,232.8V377l47.2,47.1L21.8,576h340.3l-25.3-151.9
				L384,377V72C384,52.1,367.9,36,348,36z M48,312c13.2,0,24,10.8,24,24s-10.8,24-24,24s-24-10.8-24-24S34.8,312,48,312z M324,60h24
				c6.6,0,12,5.4,12,12v90.7c-7.1-4.1-15.2-6.7-24-6.7s-16.9,2.5-24,6.7V72C312,65.4,317.4,60,324,60z M252,48h24
				c6.6,0,12,5.4,12,12v12v78.7c-7.1-4.1-15.2-6.7-24-6.7s-16.9,2.5-24,6.7V60C240,53.4,245.4,48,252,48z M180,36h24
				c6.6,0,12,5.4,12,12v12v78.7c-7.1-4.1-15.2-6.7-24-6.7s-16.9,2.5-24,6.7V48C168,41.4,173.4,36,180,36z M108,24h24
				c6.6,0,12,5.4,12,12v12v78.7c-7.1-4.1-15.2-6.7-24-6.7s-16.9,2.5-24,6.7V48C96,40.8,97.2,24,108,24z M120,192
				c-13.2,0-24-10.8-24-24s10.8-24,24-24s24,10.8,24,24S133.2,192,120,192z M192,204c-13.2,0-24-10.8-24-24s10.8-24,24-24
				s24,10.8,24,24S205.2,204,192,204z M264,216c-13.2,0-24-10.8-24-24s10.8-24,24-24s24,10.8,24,24S277.2,216,264,216z M336,228
				c-13.2,0-24-10.8-24-24s10.8-24,24-24s24,10.8,24,24S349.2,228,336,228z"/>
			<rect x="72" y="264" width="24" height="24"/>
			<path d="M288,336c0-33.1-26.9-60-60-60s-60,26.9-60,60s26.9,60,60,60S288,369.1,288,336z M192,336c0-19.9,16.1-36,36-36
				s36,16.1,36,36s-16.1,36-36,36S192,355.9,192,336z"/>
			<rect x="324" y="264" width="24" height="48"/>
			<rect x="324" y="336" width="24" height="24"/>
			<rect x="108" y="72" width="24" height="24"/>
			<rect x="180" y="84" width="24" height="24"/>
			<rect x="252" y="96" width="24" height="24"/>
			<rect x="324" y="108" width="24" height="24"/>
		</g>
	</g>
</g>
<g id="_x32_2-sonic-wave">
</g>
<g id="_x32_3-laser-gun">
</g>
<g id="_x32_4-claw">
</g>
<g id="_x32_5-cross-star">
</g>
</svg>
