<svg width="108" height="18" viewBox="0 0 108 18" fill="none" xmlns="http://www.w3.org/2000/svg">
<path d="M13.4579 7.39155H3.69211V4.17539H15.9961V0.959234H3.65952C3.23801 0.956888 2.82016 1.0376 2.42984 1.19677C2.03953 1.35594 1.6844 1.59044 1.38473 1.88688C1.08506 2.18332 0.846729 2.5359 0.68334 2.92446C0.519953 3.31303 0.434715 3.72998 0.432495 4.15149V7.41111C0.434146 7.83299 0.518965 8.25041 0.682097 8.63944C0.845225 9.02856 1.08347 9.3816 1.3832 9.67856C1.68292 9.97544 2.03825 10.2103 2.42885 10.3698C2.81944 10.5292 3.23764 10.6101 3.65952 10.6077H13.4383V13.8238H0.665017V17.04H13.4579C14.0927 17.0436 14.7143 16.8587 15.2441 16.5089C15.7739 16.159 16.1879 15.6599 16.4339 15.0747C16.5974 14.6862 16.6827 14.2693 16.685 13.8478V10.5882C16.6833 10.1663 16.5984 9.74888 16.4353 9.35984C16.2722 8.9708 16.0339 8.61768 15.7342 8.3208C15.4344 8.02391 15.0791 7.78902 14.6886 7.62957C14.298 7.47012 13.8798 7.38924 13.4579 7.39155ZM32.3767 0.959234H22.574C21.9381 0.954168 21.315 1.13807 20.7838 1.48762C20.2526 1.83717 19.8371 2.33662 19.5901 2.92262C19.4261 3.31166 19.3405 3.72928 19.3383 4.15149V13.8478C19.3404 14.27 19.4261 14.6877 19.5901 15.0769C19.8371 15.6629 20.2525 16.1623 20.7838 16.5118C21.315 16.8614 21.9381 17.0452 22.574 17.04H32.3767C32.7983 17.0424 33.2161 16.9617 33.6064 16.8025C33.9967 16.6434 34.3519 16.4088 34.6515 16.1124C34.9512 15.8159 35.1895 15.4634 35.3529 15.0748C35.5163 14.6862 35.6015 14.2693 35.6038 13.8478V4.15149C35.6015 3.72999 35.5163 3.31306 35.3529 2.92452C35.1895 2.53598 34.9511 2.18347 34.6513 1.88714C34.3518 1.5906 33.9967 1.35602 33.6063 1.1968C33.2161 1.03758 32.7983 0.956856 32.3767 0.959234ZM32.3528 13.8238H22.5979V4.17539H32.3485L32.3528 13.8238ZM66.7114 0.959234H57.1499C56.7283 0.956888 56.3105 1.0376 55.9202 1.19677C55.5299 1.35594 55.1747 1.59044 54.8751 1.88688C54.5754 2.18332 54.3371 2.5359 54.1737 2.92446C54.0103 3.31303 53.9251 3.72998 53.9228 4.15149V17.04H57.1824V11.7573H66.7005V17.04H69.9601V4.15149C69.958 3.72811 69.8721 3.30935 69.7074 2.91933C69.5427 2.5293 69.3023 2.17574 69.0003 1.879C68.6983 1.58226 68.3407 1.34822 67.9478 1.19036C67.555 1.0325 67.1347 0.953952 66.7114 0.959234ZM66.6875 8.54111H57.1694V4.17539H66.6875V8.54111ZM104.773 0.959234H95.2112C94.7896 0.956888 94.372 1.0376 93.9816 1.19677C93.5912 1.35594 93.236 1.59044 92.9368 1.88688C92.6368 2.18332 92.3984 2.5359 92.2352 2.92446C92.072 3.31303 91.9864 3.72998 91.984 4.15149V17.04H95.244V11.7573H104.74V17.04H108V4.15149C107.998 3.72999 107.913 3.31306 107.749 2.92452C107.586 2.53598 107.347 2.18347 107.047 1.88714C106.442 1.28847 105.624 0.954696 104.773 0.959234ZM104.74 8.54111H95.2224V4.17539H104.74V8.54111ZM85.8344 13.8238H84.5304L79.8694 2.30654C79.7096 1.90915 79.4348 1.56856 79.0802 1.32849C78.7255 1.08842 78.3072 0.959832 77.8788 0.959234H74.9865C74.5631 0.956952 74.1485 1.08035 73.7953 1.31381C73.4421 1.54726 73.1661 1.88028 73.0023 2.27069C72.8934 2.52981 72.8367 2.80781 72.8351 3.08886V17.04H76.0947V4.17539H77.3986L82.0576 15.6927C82.22 16.0894 82.4968 16.4286 82.8528 16.6671C83.2088 16.9055 83.628 17.0324 84.0568 17.0314H86.9496C87.2304 17.0329 87.5088 16.979 87.7696 16.8726C88.0296 16.7664 88.2664 16.6098 88.4664 16.412C88.8696 16.0126 89.0976 15.4694 89.1008 14.9018V0.959234H85.8344V13.8238ZM41.7427 0.959234H38.4831V13.8478C38.4853 14.2702 38.5709 14.688 38.735 15.0773C38.8991 15.4665 39.1384 15.8195 39.4392 16.1161C39.7401 16.4126 40.0965 16.6469 40.488 16.8054C40.8796 16.964 41.2986 17.0437 41.721 17.04H51.4999V13.8238H41.7427V0.959234Z" fill="white"/>
</svg>
