<svg width="9" height="9" viewBox="0 0 9 9" fill="none" xmlns="http://www.w3.org/2000/svg">
<path d="M3.92691 2.04615L3.45845 3.48385L1.85922 3.53231L0.243835 3.58077L1.48768 4.46923C2.16614 4.95385 2.71537 5.42231 2.71537 5.53538C2.71537 5.63231 2.53768 6.27846 2.31153 6.97308C2.10153 7.66769 1.93999 8.26538 1.9723 8.31385C2.0046 8.34615 2.55384 8.00692 3.16768 7.55461C3.78153 7.10231 4.36307 6.73077 4.44384 6.73077C4.5246 6.73077 5.08999 7.08615 5.70384 7.53846C6.31768 7.97461 6.88307 8.34615 6.94768 8.34615C6.99614 8.34615 6.8346 7.68385 6.55999 6.87615C6.15614 5.66461 6.10768 5.37385 6.28537 5.26077C6.4146 5.19615 6.97999 4.79231 7.56153 4.35615L8.61153 3.58077L7.0123 3.5L5.42922 3.41923L5.02537 2.12692C4.79922 1.41615 4.57307 0.786153 4.50845 0.705384C4.44384 0.640769 4.18537 1.23846 3.92691 2.04615Z" fill="url(#paint0_linear_404_1222)"/>
<defs>
<linearGradient id="paint0_linear_404_1222" x1="-31.075" y1="1.49089" x2="-26.2755" y2="-5.36352" gradientUnits="userSpaceOnUse">
<stop offset="0.2" stop-color="#573AFF"/>
<stop offset="1" stop-color="#D946EF"/>
</linearGradient>
</defs>
</svg>
