<svg width="29" height="28" viewBox="0 0 29 28" fill="none" xmlns="http://www.w3.org/2000/svg">
<path d="M3.33385 0.0738468C2.96231 0.219231 0.0223128 3.54692 0.119236 3.69231C0.183851 3.78923 2.99462 3.85385 7.3077 3.85385H14.3831L15.9015 2.22231C16.7254 1.33385 17.4039 0.477692 17.4039 0.332308C17.4039 0.0738468 16.8223 0.0576916 10.4577 0.0253849C6.64539 0.00923157 3.43077 0.0415382 3.33385 0.0738468ZM0.119236 6.11539C0.0223128 6.27692 2.80077 9.41077 3.28539 9.66923C3.44693 9.76615 6.32231 9.83077 10.4577 9.83077C16.4508 9.83077 17.3392 9.79846 17.42 9.58846C17.4846 9.42692 16.9839 8.76462 15.95 7.65L14.3831 5.95385H7.3077C2.94616 5.95385 0.183851 6.01846 0.119236 6.11539ZM1.70231 13.4654C0.830005 14.4023 0.119236 15.2585 0.119236 15.3715C0.119236 15.5169 1.26616 15.5815 5.01385 15.6138L9.89231 15.6462V13.7077V11.7692H6.59693H3.28539L1.70231 13.4654ZM10.6031 11.9792C10.5708 12.0923 10.5546 12.9485 10.5708 13.8854L10.6192 15.5654L11.4754 15.6138L12.3154 15.6623V20.4923V25.3062L13.7854 26.6146L15.2715 27.9231H19.6169H23.9785L25.4162 26.6146L26.8538 25.29V20.4762V15.6462H27.7423H28.6308V13.7077V11.7692H24.9154H21.2V13.7077V15.6462H21.9269H22.6539L22.6215 19.8785L22.5731 24.1269H19.5846H16.5962L16.5477 19.8785L16.5154 15.6462H17.2423H17.9692V13.7077V11.7692H14.3346C11.4592 11.7692 10.6677 11.8177 10.6031 11.9792Z" fill="url(#paint0_linear_404_1221)"/>
<defs>
<linearGradient id="paint0_linear_404_1221" x1="-8.25495" y1="27.995" x2="8.10002" y2="4.63771" gradientUnits="userSpaceOnUse">
<stop offset="0.2" stop-color="#573AFF"/>
<stop offset="1" stop-color="#D946EF"/>
</linearGradient>
</defs>
</svg>
