<svg width="28" height="29" viewBox="0 0 28 29" fill="none" xmlns="http://www.w3.org/2000/svg">
<g clip-path="url(#clip0_227_254)">
<path d="M14 28.5C21.732 28.5 28 22.232 28 14.5C28 6.76801 21.732 0.5 14 0.5C6.26801 0.5 0 6.76801 0 14.5C0 22.232 6.26801 28.5 14 28.5Z" fill="#008200"/>
<path d="M12.9413 20.625H11.368L10.4213 16.9062L12.481 14.3556L13.489 17.8495L14.0499 15.0101L17.1255 13.4028L16.9558 14.2568L18.732 14.2734C19.418 14.2629 19.9491 14.031 20.3271 13.5795C20.7051 13.1271 20.8845 12.5207 20.8653 11.7569C20.8622 11.6586 20.852 11.5606 20.8346 11.4637L23.2234 10.2151C23.5541 10.8232 23.6801 11.5399 23.6031 12.3632C23.4754 13.5637 22.9556 14.5245 22.0465 15.2446C21.1374 15.9656 19.978 16.3261 18.5701 16.3261L16.5524 16.3174L15.6975 20.625H12.9413ZM13.3096 11.0088H14.8409L12.481 14.3556L5.04613 19.6756L8.813 14.3478L6.7375 8.375H9.7825L10.8588 12.5654L11.7793 11.0079L13.4225 8.375H15.3606L19.8459 8.38375C20.8653 8.41175 21.7009 8.68213 22.3536 9.19488L19.9036 10.4759C19.8435 10.4647 19.7827 10.4571 19.7216 10.4531L17.7144 10.4356L17.1255 13.4028L14.0499 15.0101L14.84 11.0079L13.3096 11.0088ZM5.04613 19.6756L12.481 14.3556L7.66938 20.625H4.375L5.04613 19.6756Z" fill="white"/>
<path d="M20.8346 11.4637L23.2234 10.2151C23.0421 9.86722 22.568 9.39 22.3536 9.19488L19.9036 10.4759C20.3271 10.4759 20.8346 11 20.8346 11.4637Z" fill="white"/>
</g>
<defs>
<clipPath id="clip0_227_254">
<rect width="28" height="28" fill="white" transform="translate(0 0.5)"/>
</clipPath>
</defs>
</svg>
